<?xml version="1.0" encoding="utf-8"?>
<!-- Generator: Adobe Illustrator 25.2.1, SVG Export Plug-In . SVG Version: 6.00 Build 0)  -->
<svg version="1.1" id="Layer_1" xmlns="http://www.w3.org/2000/svg" xmlns:xlink="http://www.w3.org/1999/xlink" x="0px" y="0px"
	 viewBox="0 0 70 39" style="enable-background:new 0 0 70 39;" xml:space="preserve">
<style type="text/css">
	.st0{fill:#FFFFFF;}
</style>
<desc>Created with Sketch.</desc>
<g id="Page-1">
	<g id="Valuator-landing-page-mobile" transform="translate(-24.000000, -20.000000)">
		<g id="menu" transform="translate(24.000000, 20.000000)">
			<g id="blok_logo">
				<path id="Combined-Shape" class="st0" d="M70,0v39H0V0H70z M39.7,15.4c-1.9,0-3.4,0.5-4.5,1.4c-1.1,0.9-1.7,2.2-1.8,3.8
					c0,0.2,0,0.5,0,1s0,0.8,0,1c0.1,1.7,0.7,2.9,1.7,3.8l0,0v0c1.1,0.9,2.6,1.3,4.6,1.3s3.5-0.4,4.6-1.3c1.1-0.9,1.6-2.2,1.7-3.8
					c0-0.4,0-0.7,0-1s0-0.6,0-1c-0.1-1.6-0.7-2.9-1.8-3.8C43.1,15.8,41.6,15.4,39.7,15.4z M51,11.3h-2.9c-0.2,0-0.3,0.1-0.4,0.2
					c-0.1,0.1-0.2,0.3-0.2,0.4l0,0v15.1c0,0.2,0.1,0.3,0.2,0.4l0,0l0,0c0.1,0.1,0.3,0.2,0.4,0.2l0,0H51c0.2,0,0.3-0.1,0.4-0.2
					c0.1-0.1,0.2-0.3,0.2-0.4l0,0v-4.1l3.6,4.3c0.1,0.1,0.2,0.2,0.4,0.3c0.1,0.1,0.3,0.1,0.5,0.1l0,0h3.4c0.1,0,0.3,0,0.4-0.1
					c0.1-0.1,0.2-0.2,0.2-0.4c0-0.1-0.1-0.2-0.2-0.3l0,0L55,20.9l4.2-4.4c0.1-0.1,0.2-0.2,0.2-0.4c0-0.1-0.1-0.3-0.2-0.4
					c-0.1-0.1-0.2-0.1-0.4-0.1l0,0h-3.3c-0.1,0-0.2,0-0.4,0.1c-0.1,0-0.2,0.1-0.3,0.2l0,0L54.7,16l-3.1,3.5v-7.6
					c0-0.2-0.1-0.3-0.2-0.4C51.3,11.3,51.1,11.3,51,11.3L51,11.3z M20.1,11.5h-7.3c-0.2,0-0.3,0.1-0.4,0.2c-0.1,0.1-0.2,0.3-0.2,0.4
					l0,0V27c0,0.2,0.1,0.3,0.2,0.4c0.1,0.1,0.3,0.2,0.4,0.2l0,0h7.5c2,0,3.5-0.4,4.5-1.3c1-0.9,1.6-2.1,1.6-3.6
					c0-0.8-0.2-1.5-0.7-2.1c-0.4-0.6-1-1.1-1.6-1.4c0.5-0.3,1-0.7,1.3-1.2c0.4-0.6,0.6-1.2,0.6-1.9c0-1.5-0.5-2.6-1.5-3.4
					C23.6,11.9,22.1,11.5,20.1,11.5L20.1,11.5z M31.4,11.3h-3c-0.2,0-0.3,0.1-0.4,0.2c-0.1,0.1-0.2,0.3-0.2,0.4l0,0v15.1
					c0,0.2,0.1,0.3,0.2,0.4l0,0v0c0.1,0.1,0.3,0.2,0.4,0.2l0,0h3c0.2,0,0.3-0.1,0.4-0.2c0.1-0.1,0.2-0.3,0.2-0.4l0,0V11.8
					c0-0.2-0.1-0.3-0.2-0.4S31.5,11.3,31.4,11.3L31.4,11.3z M39.7,18.3c0.5,0,1.1,0.2,1.4,0.6c0.4,0.5,0.5,1.2,0.5,1.8
					c0,0.1,0,0.3,0,0.6l0,0l0,0.3c0,0.5,0,0.8,0,0.9c0,0.6-0.2,1.3-0.5,1.8l0,0l0,0c-0.4,0.4-0.9,0.6-1.4,0.6s-1.1-0.2-1.4-0.6
					c-0.4-0.5-0.6-1.2-0.5-1.8l0,0l0-0.9l0-0.9c0-0.6,0.2-1.3,0.5-1.8C38.6,18.5,39.1,18.3,39.7,18.3z M19.8,20.8
					c0.5,0,1,0.2,1.4,0.5c0.7,0.7,0.7,1.8,0,2.6c-0.4,0.4-0.9,0.5-1.4,0.5l0,0h-3.2v-3.6H19.8z M19.6,14.6c0.5,0,1,0.1,1.4,0.4
					c0.3,0.3,0.5,0.7,0.5,1.2c0,0.4-0.2,0.9-0.5,1.2c-0.4,0.3-0.9,0.5-1.4,0.5l0,0l-2.9,0v-3.3H19.6z"/>
				<g id="Group" transform="translate(12.000000, 11.000000)">
				</g>
			</g>
		</g>
	</g>
</g>
</svg>
