<?xml version="1.0" encoding="utf-8"?>
<!-- Generator: Adobe Illustrator 25.2.0, SVG Export Plug-In . SVG Version: 6.00 Build 0)  -->
<svg version="1.1" id="Layer_1" xmlns="http://www.w3.org/2000/svg" xmlns:xlink="http://www.w3.org/1999/xlink" x="0px" y="0px"
	 viewBox="0 0 50 30" style="enable-background:new 0 0 50 30;" xml:space="preserve">
<style type="text/css">
	.st0{fill:#022640;}
</style>
<desc>Created with Sketch.</desc>
<g>
	<path class="st0" d="M39.9,27.7h-3.7V7.4H37c0.3,0,0.5-0.2,0.5-0.5V5.5c0-0.2-0.1-0.4-0.3-0.5l-12-4.3c-0.1,0-0.2,0-0.3,0L12.8,5
		c-0.2,0.1-0.4,0.2-0.4,0.5v1.4c0,0.3,0.2,0.5,0.5,0.5h0.9v20.3h-3.7c-0.3,0-0.5,0.2-0.5,0.5s0.2,0.5,0.5,0.5h12.7h4.3h12.7
		c0.3,0,0.5-0.2,0.5-0.5S40.1,27.7,39.9,27.7z M13.4,5.8L25,1.7l11.5,4.1v0.6h-0.9H14.4h-1V5.8z M14.9,7.4h20.3v20.3h-7.5v-6.6
		c0-0.3-0.2-0.5-0.5-0.5h-4.3c-0.3,0-0.5,0.2-0.5,0.5v6.6h-7.5V7.4z M23.4,27.7v-6.1h3.3v6.1H23.4z"/>
	<path class="st0" d="M20,9.2h-2.8c-0.3,0-0.5,0.2-0.5,0.5v2.8c0,0.3,0.2,0.5,0.5,0.5H20c0.3,0,0.5-0.2,0.5-0.5V9.7
		C20.5,9.5,20.3,9.2,20,9.2z M19.5,12.1h-1.8v-1.8h1.8V12.1z"/>
	<path class="st0" d="M22.9,13.1h4.3c0.3,0,0.5-0.2,0.5-0.5V9.7c0-0.3-0.2-0.5-0.5-0.5h-4.3c-0.3,0-0.5,0.2-0.5,0.5v2.8
		C22.4,12.9,22.6,13.1,22.9,13.1z M23.4,10.2h3.3V12h-3.3C23.4,12,23.4,10.2,23.4,10.2z"/>
	<path class="st0" d="M30,13.1h2.8c0.3,0,0.5-0.2,0.5-0.5V9.7c0-0.3-0.2-0.5-0.5-0.5H30c-0.3,0-0.5,0.2-0.5,0.5v2.8
		C29.5,12.9,29.7,13.1,30,13.1z M30.5,10.2h1.8V12h-1.8V10.2z"/>
	<path class="st0" d="M20,14.9h-2.8c-0.3,0-0.5,0.2-0.5,0.5v2.8c0,0.3,0.2,0.5,0.5,0.5H20c0.3,0,0.5-0.2,0.5-0.5v-2.8
		C20.5,15.1,20.3,14.9,20,14.9z M19.5,17.8h-1.8V16h1.8V17.8z"/>
	<path class="st0" d="M22.9,18.8h4.3c0.3,0,0.5-0.2,0.5-0.5v-2.8c0-0.3-0.2-0.5-0.5-0.5h-4.3c-0.3,0-0.5,0.2-0.5,0.5v2.8
		C22.4,18.5,22.6,18.8,22.9,18.8z M23.4,15.9h3.3v1.8h-3.3C23.4,17.7,23.4,15.9,23.4,15.9z"/>
	<path class="st0" d="M30,18.8h2.8c0.3,0,0.5-0.2,0.5-0.5v-2.8c0-0.3-0.2-0.5-0.5-0.5H30c-0.3,0-0.5,0.2-0.5,0.5v2.8
		C29.5,18.5,29.7,18.8,30,18.8z M30.5,15.9h1.8v1.8h-1.8V15.9z"/>
	<path class="st0" d="M20,20.6h-2.8c-0.3,0-0.5,0.2-0.5,0.5v2.8c0,0.3,0.2,0.5,0.5,0.5H20c0.3,0,0.5-0.2,0.5-0.5v-2.8
		C20.5,20.8,20.3,20.6,20,20.6z M19.5,23.4h-1.8v-1.8h1.8V23.4z"/>
	<path class="st0" d="M30,24.4h2.8c0.3,0,0.5-0.2,0.5-0.5v-2.8c0-0.3-0.2-0.5-0.5-0.5H30c-0.3,0-0.5,0.2-0.5,0.5v2.8
		C29.5,24.2,29.7,24.4,30,24.4z M30.5,21.6h1.8v1.8h-1.8V21.6z"/>
</g>
</svg>
