<?xml version="1.0" encoding="utf-8"?>
<!-- Generator: Adobe Illustrator 25.2.0, SVG Export Plug-In . SVG Version: 6.00 Build 0)  -->
<svg version="1.1" id="Layer_1" xmlns="http://www.w3.org/2000/svg" xmlns:xlink="http://www.w3.org/1999/xlink" x="0px" y="0px"
	 viewBox="0 0 30.3 18.8" style="enable-background:new 0 0 30.3 18.8;" xml:space="preserve">
<style type="text/css">
	.st0{fill:#002641;}
</style>
<desc>Created with Sketch.</desc>
<path class="st0" d="M29.3,8.3H3.5L10,1.7c0.4-0.4,0.4-1,0-1.4c-0.4-0.4-1-0.4-1.4,0L0.3,8.6c-0.4,0.4-0.4,1,0,1.4l8.4,8.5
	c0.2,0.2,0.5,0.3,0.7,0.3c0.3,0,0.5-0.1,0.7-0.3c0.4-0.4,0.4-1,0-1.4l-6.8-6.9h26c0.6,0,1-0.4,1-1S29.9,8.3,29.3,8.3z"/>
</svg>
