<?xml version="1.0" encoding="utf-8"?>
<!-- Generator: Adobe Illustrator 25.2.0, SVG Export Plug-In . SVG Version: 6.00 Build 0)  -->
<svg version="1.1" id="Layer_1" xmlns="http://www.w3.org/2000/svg" xmlns:xlink="http://www.w3.org/1999/xlink" x="0px" y="0px"
	 viewBox="0 0 50 29.6" style="enable-background:new 0 0 50 29.6;" xml:space="preserve">
<style type="text/css">
	.st0{fill:#022640;}
</style>
<desc>Created with Sketch.</desc>
<path class="st0" d="M42.3,28.6h-2.5V13.1l2.2,1.4c0.1,0.1,0.2,0.1,0.3,0.1c0.2,0,0.3-0.1,0.4-0.2c0.1-0.2,0.1-0.5-0.2-0.7L38.3,11
	V3.5c0-0.3-0.2-0.5-0.5-0.5h-3c-0.3,0-0.5,0.2-0.5,0.5v5L20.8,0.1c-0.3-0.2-0.6-0.1-0.7,0.1S20,0.8,20.2,0.9l2,1.3v8.5L7.5,16.6
	c-0.2,0.1-0.4,0.4-0.3,0.6s0.3,0.3,0.5,0.3c0.1,0,0.1,0,0.2,0l2.3-0.9v12H7.7c-0.3,0-0.5,0.2-0.5,0.5s0.2,0.5,0.5,0.5h34.6
	c0.3,0,0.5-0.2,0.5-0.5S42.6,28.6,42.3,28.6z M35.3,4h2v6.3l-2-1.2V4z M38.8,12.5v16.1h-4.2v-8.9c0-0.3-0.2-0.5-0.5-0.5h-5.9
	c-0.3,0-0.5,0.2-0.5,0.5v8.9h-4.5V11l0,0V2.8L38.8,12.5z M33.6,28.6h-4.9v-8.4h4.9V28.6z M11.2,16.2l11-4.4v16.8h-11V16.2z"/>
</svg>
