<?xml version="1.0" encoding="utf-8"?>
<!-- Generator: Adobe Illustrator 25.2.0, SVG Export Plug-In . SVG Version: 6.00 Build 0)  -->
<svg version="1.1" id="Layer_1" xmlns="http://www.w3.org/2000/svg" xmlns:xlink="http://www.w3.org/1999/xlink" x="0px" y="0px"
	 viewBox="0 0 28 28" style="enable-background:new 0 0 28 28;" xml:space="preserve">
<style type="text/css">
	.st0{fill-rule:evenodd;clip-rule:evenodd;fill:#FFFFFF;}
</style>
<desc>Created with Sketch.</desc>
<g id="Valuation-single-page">
	<g id="Valuator-landing-page-mobile" transform="translate(-27.000000, -425.000000)">
		<g id="Group-45" transform="translate(27.000000, 425.000000)">
			<path id="Fill-77" class="st0" d="M16.5,0.2c-0.3-0.1-0.6,0-0.8,0.2L3.4,16.5c-0.1,0.2-0.2,0.4,0,0.6c0.1,0.2,0.3,0.3,0.5,0.3H13
				l-2.3,9.6c-0.1,0.3,0.1,0.5,0.4,0.6c0.3,0.1,0.6,0,0.8-0.2l12.4-16.1c0.1-0.2,0.2-0.4,0-0.6c-0.1-0.2-0.3-0.3-0.5-0.3h-9.1
				l2.3-9.7C16.9,0.6,16.7,0.3,16.5,0.2"/>
		</g>
	</g>
</g>
</svg>
