<?xml version="1.0" encoding="utf-8"?>
<!-- Generator: Adobe Illustrator 25.2.0, SVG Export Plug-In . SVG Version: 6.00 Build 0)  -->
<svg version="1.1" id="Layer_1" xmlns="http://www.w3.org/2000/svg" xmlns:xlink="http://www.w3.org/1999/xlink" x="0px" y="0px"
	 viewBox="0 0 122 76" style="enable-background:new 0 0 122 76;" xml:space="preserve">
<style type="text/css">
	.st0{fill:#8DD3D9;}
	.st1{fill:#FFFFFF;}
</style>
<desc>Created with Sketch.</desc>
<g id="Valuation-single-page">
	<g id="Step-3-mobile" transform="translate(-126.000000, -202.000000)">
		<g id="Group-2" transform="translate(126.000000, 202.000000)">
			<g>
				<polygon class="st0" points="61,37 2,37 2,39 61,39 61,50 63,50 63,39 63,37 63,28 61,28 				"/>
				<polygon class="st0" points="61,74.4 63,76 63,65 61,65 				"/>
				<polygon class="st0" points="61,1.3 61,14 63,14 63,1 				"/>
			</g>
			<path id="Rectangle" class="st1" d="M119.5,0H2.5C1.1,0,0,1.1,0,2.5v71C0,74.9,1.1,76,2.5,76h117c1.4,0,2.5-1.1,2.5-2.5v-71
				C122,1.1,120.9,0,119.5,0z M119.5,2c0.3,0,0.5,0.2,0.5,0.5v71c0,0.3-0.2,0.5-0.5,0.5H2.5C2.2,74,2,73.8,2,73.5v-71
				C2,2.2,2.2,2,2.5,2H119.5z"/>
		</g>
	</g>
</g>
</svg>
