<?xml version="1.0" encoding="utf-8"?>
<!-- Generator: Adobe Illustrator 25.2.0, SVG Export Plug-In . SVG Version: 6.00 Build 0)  -->
<svg version="1.1" id="Layer_1" xmlns="http://www.w3.org/2000/svg" xmlns:xlink="http://www.w3.org/1999/xlink" x="0px" y="0px"
	 viewBox="0 0 50 26" style="enable-background:new 0 0 50 26;" xml:space="preserve">
<style type="text/css">
	.st0{fill:#022640;}
</style>
<desc>Created with Sketch.</desc>
<path class="st0" d="M43.8,24.6h-3.3V10.9l1.9,1.2c0.1,0,0.2,0.1,0.3,0.1c0.2,0,0.3-0.1,0.4-0.2c0.1-0.2,0.1-0.5-0.2-0.7L39.1,9V3.2
	c0-0.3-0.2-0.5-0.5-0.5h-2.7c-0.3,0-0.5,0.2-0.5,0.5v3.4L25.1,0.3c-0.1-0.1-0.2-0.1-0.3-0.1c-0.1,0-0.2,0-0.3,0.1L14.3,6.6V3.2
	c0-0.3-0.2-0.5-0.5-0.5h-2.7c-0.3,0-0.5,0.3-0.5,0.5v5.7l-3.8,2.3c-0.2,0.1-0.3,0.5-0.2,0.7s0.3,0.2,0.4,0.2c0.1,0,0.2,0,0.3-0.1
	l1.9-1.2v13.7H5.9c-0.3,0-0.5,0.2-0.5,0.5s0.2,0.5,0.5,0.5h37.8c0.3,0,0.5-0.2,0.5-0.5S44,24.6,43.8,24.6z M39.5,24.6h-3.9v-7.9
	c0-0.3-0.2-0.5-0.5-0.5h-5.3c-0.3,0-0.5,0.2-0.5,0.5v7.9h-3.8v-23l14.1,8.6L39.5,24.6L39.5,24.6z M30.2,24.6v-7.4h4.3v7.4H30.2z
	 M36.4,3.7h1.7v4.6l-1.7-1C36.4,7.3,36.4,3.7,36.4,3.7z M11.6,3.7h1.7v3.5l-1.7,1C11.6,8.2,11.6,3.7,11.6,3.7z M10.2,10.3l14.1-8.7
	v23h-3.9v-7.9c0-0.3-0.2-0.5-0.5-0.5h-5.3c-0.3,0-0.5,0.2-0.5,0.5v7.9h-3.9V10.3z M15.1,24.6v-7.4h4.3v7.4H15.1z"/>
</svg>
