<?xml version="1.0" encoding="utf-8"?>
<!-- Generator: Adobe Illustrator 25.2.0, SVG Export Plug-In . SVG Version: 6.00 Build 0)  -->
<svg version="1.1" id="Layer_1" xmlns="http://www.w3.org/2000/svg" xmlns:xlink="http://www.w3.org/1999/xlink" x="0px" y="0px"
	 viewBox="0 0 122 79" style="enable-background:new 0 0 122 79;" xml:space="preserve">
<style type="text/css">
	.st0{fill:#FFFFFF;}
	.st1{fill:#8DD3D9;}
</style>
<desc>Created with Sketch.</desc>
<g id="Valuation-single-page">
	<g id="Step-2-mobile" transform="translate(-144.000000, -200.000000)">
		<g id="Group-3" transform="translate(144.500000, 200.500000)">
			<path id="Stroke-1" class="st0" d="M79.4-0.5c0.6,0,1,0.4,1,1c0,0.5-0.4,0.9-0.9,1h-0.1H20v75h81V41.3c0-0.5,0.4-0.9,0.9-1h0.1
				c0.5,0,0.9,0.4,1,0.9v0.1v36.2c0,0.5-0.4,0.9-0.9,1H102H19c-0.5,0-0.9-0.4-1-0.9v-0.1v-77c0-0.5,0.4-0.9,0.9-1H19H79.4z"/>
			<path id="m_xB2_" class="st1" d="M49,48.5V40c0-1.4,0.3-2.5,0.9-3.3c0.6-0.8,1.5-1.2,2.6-1.2c2.1,0,3.1,1.4,3.1,4.1l0,0v8.8h3.5
				V40c0-1.4,0.3-2.5,0.9-3.3s1.5-1.2,2.6-1.2c2.1,0,3.2,1.4,3.2,4.1l0,0v8.8h3.5V39c0-2.1-0.5-3.8-1.5-4.9s-2.4-1.7-4.2-1.7
				c-1.2,0-2.2,0.3-3.2,0.9c-0.9,0.6-1.6,1.3-2,2.3c-0.9-2.1-2.5-3.2-4.9-3.2c-1.1,0-2.1,0.3-3,0.8c-0.9,0.5-1.5,1.2-1.9,2.1l0,0
				l-0.1-2.4h-3v15.6C45.5,48.5,49,48.5,49,48.5z M82.4,34.4V32h-5.5c0.3-0.2,0.6-0.5,0.9-0.7s0.6-0.5,0.9-0.8
				c2.1-1.9,3.2-3.7,3.2-5.3c0-1.1-0.4-2-1.2-2.6c-0.8-0.7-1.8-1-3.1-1c-0.8,0-1.6,0.1-2.3,0.4c-0.8,0.3-1.4,0.7-1.8,1.2l0,0
				l0.5,2.3c1.1-1,2.1-1.6,3.2-1.6c0.6,0,1.1,0.1,1.4,0.4s0.5,0.7,0.5,1.1c0,0.5-0.2,1.1-0.5,1.6c-0.3,0.5-0.9,1.2-1.8,2
				c-0.5,0.5-1,1-1.7,1.5c-0.6,0.6-1.2,1-1.8,1.4l0,0v2.4h9.1V34.4z"/>
		</g>
	</g>
</g>
</svg>
