<?xml version="1.0" encoding="utf-8"?>
<!-- Generator: Adobe Illustrator 25.2.0, SVG Export Plug-In . SVG Version: 6.00 Build 0)  -->
<svg version="1.1" id="Layer_1" xmlns="http://www.w3.org/2000/svg" xmlns:xlink="http://www.w3.org/1999/xlink" x="0px" y="0px"
	 viewBox="0 0 28 28" style="enable-background:new 0 0 28 28;" xml:space="preserve">
<style type="text/css">
	.st0{fill-rule:evenodd;clip-rule:evenodd;fill:#FFFFFF;}
</style>
<desc>Created with Sketch.</desc>
<g id="Valuation-single-page">
	<g id="Valuator-landing-page-mobile" transform="translate(-23.000000, -540.000000)">
		<g id="Group-1289" transform="translate(23.000000, 540.000000)">
			<path id="Fill-1682" class="st0" d="M28,9.7c-0.1-0.2-0.3-0.4-0.6-0.4h-9.5l-3.4-8.9C14.5,0.2,14.2,0,14,0
				c-0.2,0-0.5,0.2-0.5,0.4l-3.4,8.9H0.6C0.3,9.3,0.1,9.5,0,9.7c-0.1,0.2,0,0.5,0.2,0.6l7.8,6.7L4.7,27.2c-0.1,0.2,0,0.5,0.2,0.7
				c0.2,0.1,0.5,0.1,0.7,0l8.4-6.2l8.4,6.2c0.2,0.2,0.5,0.2,0.7,0c0.2-0.1,0.3-0.4,0.2-0.7l-3.4-10.1l7.8-6.7C28,10.2,28,10,28,9.7"
				/>
		</g>
	</g>
</g>
</svg>
