<?xml version="1.0" encoding="utf-8"?>
<!-- Generator: Adobe Illustrator 25.2.0, SVG Export Plug-In . SVG Version: 6.00 Build 0)  -->
<svg version="1.1" id="Layer_1" xmlns="http://www.w3.org/2000/svg" xmlns:xlink="http://www.w3.org/1999/xlink" x="0px" y="0px"
	 viewBox="0 0 50 21.6" style="enable-background:new 0 0 50 21.6;" xml:space="preserve">
<style type="text/css">
	.st0{fill:#022640;}
</style>
<desc>Created with Sketch.</desc>
<path class="st0" d="M45,20.6h-1.7V9.8l1.4,0.9c0.1,0.1,0.2,0.1,0.3,0.1c0.2,0,0.3-0.1,0.4-0.2c0.1-0.2,0.1-0.5-0.2-0.7L29.4,0.1
	C29.2,0,28.9,0,28.7,0.3c-0.1,0.2-0.1,0.5,0.2,0.7l1.4,0.9V8L17.4,0c-0.2-0.1-0.5-0.1-0.7,0.2c-0.1,0.2-0.1,0.5,0.2,0.7l1.4,0.9V8
	L5.4,0C5.1-0.1,4.8,0,4.7,0.2C4.5,0.5,4.6,0.8,4.8,0.9l1.4,0.9v18.9H5c-0.3,0-0.5,0.2-0.5,0.5s0.2,0.5,0.5,0.5h2.9h12h1h12h12
	c0.3,0,0.5-0.2,0.5-0.5S45.2,20.6,45,20.6z M7.2,20.6V2.4l11,6.8v11.4h-2.9v-6.3c0-0.3-0.2-0.5-0.5-0.5h-4.3c-0.3,0-0.5,0.2-0.5,0.5
	v6.3H7.9H7.2z M14.3,20.6H11v-5.8h3.4L14.3,20.6L14.3,20.6z M19.9,20.6h-0.6V2.4l11,6.8v11.4h-2.8v-6.3c0-0.3-0.2-0.5-0.5-0.5h-4.4
	c-0.3,0-0.5,0.2-0.5,0.5v6.3h-1.3H19.9z M26.5,20.6h-3.4v-5.8h3.4V20.6z M31.3,20.6V2.4l11,6.8v11.4h-2.8v-6.3
	c0-0.3-0.2-0.5-0.5-0.5h-4.4c-0.3,0-0.5,0.2-0.5,0.5v6.3h-1.3H31.3z M38.5,20.6h-3.4v-5.8h3.4V20.6z"/>
</svg>
